# xmcd
#
# Track frame offsets:
#	150
#	14857
#	27295
#	36907
#	50215
#	61877
#	74602
#	89677
#	100235
#	109710
#	118175
#	130377
#	150337
#	162907
#
# Disc length: 2300 seconds
#
# Revision: 0
# Processed by: cddbd v1.5.2PL0 Copyright (c) Steve Scherf et al.
# Submitted via: audiograbber 1.83.01
#
DISCID=ca08fa0e
DTITLE=Rùzní - Country Greatest 1
DYEAR=1993
DGENRE=country
TTITLE0=Jeannie C. Rilley - Harper valley p.t.a
TTITLE1=Johny Cash - I walk the line
TTITLE2=Jimmy C. Newman - Alligator man
TTITLE3=Bobby Bare - Detroit city
TTITLE4=Roy Drusky - Another
TTITLE5=Anita Perras - The tip of my fingers
TTITLE6=Kenny Rogers - For the good times
TTITLE7=Patsy Cline - I can see an angel
TTITLE8=Charlie Rich - Lonely weekends
TTITLE9=Jerry Lee Lewis - Save the last dance for me
TTITLE10=Billie Jo Spears - Misty blue
TTITLE11=Garry Fjellgaard - Cowboy in your heart
TTITLE12=Willie Nelson - Any old arms won't do
TTITLE13=Dave Dudley - Truck drivin' son-of-a-gun
EXTD=
EXTT0=
EXTT1=
EXTT2=
EXTT3=
EXTT4=
EXTT5=
EXTT6=
EXTT7=
EXTT8=
EXTT9=
EXTT10=
EXTT11=
EXTT12=
EXTT13=
PLAYORDER=
